<?xml version="1.0" encoding="UTF-8"?>
<svg width="24" height="24" viewBox="0 0 24 24" fill="none" xmlns="http://www.w3.org/2000/svg">
  <path d="M20 12V17C20 18.6569 18.6569 20 17 20H7C5.34315 20 4 18.6569 4 17V7C4 5.34315 5.34315 4 7 4H12" stroke="#2684FF" stroke-width="2" stroke-linecap="round" stroke-linejoin="round"/>
  <path d="M16 5L19 8M20.385 6.585C20.7788 6.19115 21 5.65698 21 5.1C21 4.54302 20.7788 4.00885 20.385 3.615C19.9912 3.22115 19.457 3 18.9 3C18.343 3 17.8088 3.22115 17.415 3.615L9 12V15H12L20.385 6.585Z" stroke="#2684FF" stroke-width="2" stroke-linecap="round" stroke-linejoin="round"/>
</svg> 