<svg width="32" height="32" viewBox="0 0 32 32" fill="none" xmlns="http://www.w3.org/2000/svg">
  <rect width="32" height="32" rx="3" fill="#2684FF"/>
  <path d="M16 6C10.48 6 6 10.48 6 16C6 21.52 10.48 26 16 26C21.52 26 26 21.52 26 16C26 10.48 21.52 6 16 6ZM16 24C11.584 24 8 20.416 8 16C8 11.584 11.584 8 16 8C20.416 8 24 11.584 24 16C24 20.416 20.416 24 16 24Z" fill="white"/>
  <path d="M16 10C12.688 10 10 12.688 10 16C10 19.312 12.688 22 16 22C19.312 22 22 19.312 22 16C22 12.688 19.312 10 16 10ZM16 20C13.792 20 12 18.208 12 16C12 13.792 13.792 12 16 12C18.208 12 20 13.792 20 16C20 18.208 18.208 20 16 20Z" fill="white"/>
  <path d="M16 14C14.896 14 14 14.896 14 16C14 17.104 14.896 18 16 18C17.104 18 18 17.104 18 16C18 14.896 17.104 14 16 14Z" fill="white"/>
</svg> 