<svg width="32" height="32" viewBox="0 0 32 32" fill="none" xmlns="http://www.w3.org/2000/svg">
  <rect width="32" height="32" rx="3" fill="#2684FF"/>
  <path d="M7.96533 19.4933C7.74933 19.8267 7.53333 20.2133 7.37333 20.5467C6.85333 21.64 6.28 22.7067 5.70667 23.7733C5.54667 24.08 5.27733 24.3333 4.94667 24.4667C4.64267 24.5733 4.29333 24.5733 3.96267 24.4667L4.02667 24.4133C5.14667 23.8667 6.24 23.2667 7.30667 22.64C7.61333 22.48 7.89333 22.2667 8.14667 22.0267C10.0267 20.3067 11.5733 18.2667 12.7467 16C11.5733 13.7333 10.0267 11.6933 8.14667 9.97333C7.89333 9.73333 7.61333 9.52 7.30667 9.36C6.24 8.73333 5.14667 8.13333 4.02667 7.58667L3.96267 7.53333C4.29333 7.42667 4.64267 7.42667 4.94667 7.53333C5.27733 7.66667 5.54667 7.92 5.70667 8.22667C6.28 9.29333 6.85333 10.36 7.37333 11.4533C7.53333 11.7867 7.74933 12.1733 7.96533 12.5067C8.93333 14.0533 10.0533 15.4933 11.3067 16.8C11.3067 16.8 11.3067 16.8 11.3067 16.8533C11.3067 16.8533 11.3067 16.8533 11.3067 16.8C10.0533 18.1067 8.93333 19.5467 7.96533 19.4933Z" fill="white"/>
  <path d="M24.0347 19.4933C24.2507 19.8267 24.4667 20.2133 24.6267 20.5467C25.1467 21.64 25.72 22.7067 26.2933 23.7733C26.4533 24.08 26.7227 24.3333 27.0533 24.4667C27.3573 24.5733 27.7067 24.5733 28.0373 24.4667L27.9733 24.4133C26.8533 23.8667 25.76 23.2667 24.6933 22.64C24.3867 22.48 24.1067 22.2667 23.8533 22.0267C21.9733 20.3067 20.4267 18.2667 19.2533 16C20.4267 13.7333 21.9733 11.6933 23.8533 9.97333C24.1067 9.73333 24.3867 9.52 24.6933 9.36C25.76 8.73333 26.8533 8.13333 27.9733 7.58667L28.0373 7.53333C27.7067 7.42667 27.3573 7.42667 27.0533 7.53333C26.7227 7.66667 26.4533 7.92 26.2933 8.22667C25.72 9.29333 25.1467 10.36 24.6267 11.4533C24.4667 11.7867 24.2507 12.1733 24.0347 12.5067C23.0667 14.0533 21.9467 15.4933 20.6933 16.8C20.6933 16.8 20.6933 16.8 20.6933 16.8533C20.6933 16.8533 20.6933 16.8533 20.6933 16.8C21.9467 18.1067 23.0667 19.5467 24.0347 19.4933Z" fill="white"/>
</svg> 