<svg width="32" height="32" viewBox="0 0 32 32" fill="none" xmlns="http://www.w3.org/2000/svg">
  <rect width="32" height="32" rx="3" fill="#2684FF"/>
  <path d="M16 6C10.48 6 6 10.48 6 16C6 21.52 10.48 26 16 26C21.52 26 26 21.52 26 16C26 10.48 21.52 6 16 6ZM16 23.6C11.8 23.6 8.4 20.2 8.4 16C8.4 11.8 11.8 8.4 16 8.4C20.2 8.4 23.6 11.8 23.6 16C23.6 20.2 20.2 23.6 16 23.6Z" fill="white"/>
  <path d="M16 11.2C13.36 11.2 11.2 13.36 11.2 16C11.2 18.64 13.36 20.8 16 20.8C18.64 20.8 20.8 18.64 20.8 16C20.8 13.36 18.64 11.2 16 11.2ZM16 18.4C14.68 18.4 13.6 17.32 13.6 16C13.6 14.68 14.68 13.6 16 13.6C17.32 13.6 18.4 14.68 18.4 16C18.4 17.32 17.32 18.4 16 18.4Z" fill="white"/>
</svg> 