<svg width="32" height="32" viewBox="0 0 32 32" fill="none" xmlns="http://www.w3.org/2000/svg">
  <rect width="32" height="32" rx="3" fill="#0052CC"/>
  <path d="M25.0266 15.4134L15.8533 6.24013L14.6133 5L7.71333 11.8933L4.98667 14.62C4.36 15.2467 4.36 16.2667 4.98667 16.8934L11.4533 23.36L14.6133 26.52L21.5133 19.62L21.7733 19.36L25.0266 16.1067C25.6533 15.48 25.6533 15.0134 25.0266 15.4134ZM14.6133 20.3534L11.7733 17.5134L14.6133 14.6734L17.4533 17.5134L14.6133 20.3534Z" fill="white"/>
  <path d="M14.6133 14.6733C12.0533 12.1133 12.0267 7.93325 14.56 5.37325L7.66667 12.2666L11.7467 16.3466L14.6133 13.48L14.6133 14.6733Z" fill="rgb(222, 235, 255)"/>
  <path d="M17.4533 17.4867L14.6133 20.3267V21.1333C17.1733 23.6933 21.3533 23.72 23.9133 21.16L17.4533 17.4867Z" fill="rgb(222, 235, 255)"/>
</svg> 