<?xml version="1.0" encoding="UTF-8"?>
<svg id="katman_2" data-name="katman 2" xmlns="http://www.w3.org/2000/svg" viewBox="0 0 291.39 549.88">
  <defs>
    <style>
      .cls-1 {
        fill: #004cff;
      }
    </style>
  </defs>
  <g id="katman_1" data-name="katman 1">
    <g>
      <path d="M291.39,150.95C291.39,67.72,223.67,0,140.43,0v34.8c74.32,0,119.03,61.88,119.03,116.15,0,42.06-21.53,80.18-57.6,101.96l-17.34,10.48,56.3,186.88-100.39,60.35v39.25l138.03-85.34-56.24-186.7c43.4-27.96,69.17-75.06,69.17-126.89Z"/>
      <path class="cls-1" d="M1.11,92.83l-1.11,2.65,140.43,290.24V0C79.35,0,24.66,36.44,1.11,92.83Z"/>
      <polygon class="cls-1" points="37.72 347.5 2.4 464.54 140.43 549.88 140.43 510.63 37.72 347.5"/>
    </g>
  </g>
</svg>