<?xml version="1.0" encoding="UTF-8"?>
<svg id="katman_2" data-name="katman 2" xmlns="http://www.w3.org/2000/svg" viewBox="0 0 935.59 232.61">
  <defs>
    <style>
      .cls-1 {
        fill: #004cff;
      }
    </style>
  </defs>
  <g id="katman_1" data-name="katman 1">
    <g>
      <g>
        <path class="cls-1" d="M175.52,160.25l-24.26-67.65h20.97l12.92,42.18h.24l12.92-42.18h20.97l-24.38,67.65h-19.38Z"/>
        <path class="cls-1" d="M231.1,85.41v-15.36h20.23v15.36h-20.23ZM231.1,160.25v-67.65h20.23v67.65h-20.23Z"/>
        <path class="cls-1" d="M268.28,160.25v-67.65h19.02v7.19h.24c3.54-7.19,9.14-9.51,16.94-9.51v20.36c-12.07.12-15.97,4.63-15.97,12.31v37.3h-20.23Z"/>
        <path class="cls-1" d="M321.54,160.25v-52.29h-9.99v-15.36h9.99v-22.55h20.24v22.55h9.75v15.36h-9.75v52.29h-20.24Z"/>
        <path class="cls-1" d="M406.25,160.25v-7.19h-.24c-2.93,6.22-8.29,9.39-17.43,9.39-14.26,0-26.08-8.53-26.08-27.79v-42.05h20.23v37.91c0,8.9,3.17,13.04,10.85,13.04s11.58-5.12,11.58-13.41v-37.54h20.23v67.65h-19.14Z"/>
        <path class="cls-1" d="M493.28,160.25v-7.31h-.24c-2.93,5.97-10.97,9.63-19.87,9.63-19.99,0-33.89-15.72-33.89-36.2s14.5-36.08,33.89-36.08c8.29,0,15.97,3.29,19.87,9.51h.24v-7.19h20.24v67.65h-20.24ZM493.28,126.36c0-9.51-7.68-17.19-17.19-17.19s-16.58,7.68-16.58,17.43,7.43,17.06,16.82,17.06,16.94-7.56,16.94-17.31Z"/>
        <path class="cls-1" d="M531.3,160.25v-90.2h20.23v90.2h-20.23Z"/>
        <path d="M568.47,160.25v-67.65h19.02v7.19h.24c3.54-7.19,9.14-9.51,16.94-9.51v20.36c-12.07.12-15.97,4.63-15.97,12.31v37.3h-20.23Z"/>
        <path d="M617.84,85.41v-15.36h20.23v15.36h-20.23ZM617.84,160.25v-67.65h20.23v67.65h-20.23Z"/>
        <path d="M706.33,160.25v-7.31h-.24c-3.78,6.22-10.6,9.51-20.23,9.51-20.48,0-33.89-15.72-33.89-36.2s13.77-35.96,33.52-35.96c7.8,0,14.14,2.32,19.87,8.04v-28.28h20.23v90.2h-19.26ZM706.45,126.12c0-9.39-7.19-16.94-17.19-16.94s-17.06,7.07-17.06,16.94,7.19,17.43,16.94,17.43,17.31-7.44,17.31-17.43Z"/>
        <path d="M793.84,160.25v-7.31h-.24c-3.78,6.22-10.6,9.51-20.23,9.51-20.48,0-33.89-15.72-33.89-36.2s13.77-35.96,33.52-35.96c7.8,0,14.14,2.32,19.87,8.04v-28.28h20.23v90.2h-19.26ZM793.96,126.12c0-9.39-7.19-16.94-17.19-16.94s-17.06,7.07-17.06,16.94,7.19,17.43,16.94,17.43,17.31-7.44,17.31-17.43Z"/>
        <path d="M830.77,160.25v-90.2h20.23v90.2h-20.23Z"/>
        <path d="M884.4,132.58c1.1,7.68,7.56,12.8,15.85,12.8,5.48,0,9.02-2.07,12.31-6.34h20.72c-6.46,14.75-18.77,23.4-33.03,23.4-19.5,0-35.84-15.72-35.84-35.84s15.6-36.32,35.47-36.32,35.71,15.97,35.71,36.93c0,1.95-.12,3.54-.49,5.36h-50.71ZM915.36,118.93c-1.58-6.95-7.68-11.58-15.48-11.58-7.31,0-13.65,4.39-15.24,11.58h30.72Z"/>
      </g>
      <g>
        <path d="M123.27,63.86C123.27,28.65,94.62,0,59.41,0v14.72c31.44,0,50.35,26.18,50.35,49.14,0,17.79-9.11,33.92-24.37,43.13l-7.33,4.43,23.82,79.06-42.47,25.53v16.6l58.39-36.1-23.79-78.98c18.36-11.83,29.26-31.75,29.26-53.68Z"/>
        <path class="cls-1" d="M.47,39.27l-.47,1.12,59.41,122.78V0C33.57,0,10.43,15.42.47,39.27Z"/>
        <polygon class="cls-1" points="15.96 147 1.02 196.51 59.41 232.61 59.41 216.01 15.96 147"/>
      </g>
    </g>
  </g>
</svg>